Coordinates
version=1
nRows=14
nColumns=40
inDegrees=yes

Units are S.I. units (second, meters, Newtons, ...)
Angles are in degrees.

endheader
time	pelvis_tilt	pelvis_list	pelvis_rotation	pelvis_tx	pelvis_ty	pelvis_tz	hip_flexion_r	hip_adduction_r	hip_rotation_r	knee_angle_r	knee_angle_r_beta	ankle_angle_r	subtalar_angle_r	mtp_angle_r	hip_flexion_l	hip_adduction_l	hip_rotation_l	knee_angle_l	knee_angle_l_beta	ankle_angle_l	subtalar_angle_l	mtp_angle_l	lumbar_extension	lumbar_bending	lumbar_rotation	arm_flex_r	arm_add_r	arm_rot_r	elbow_flex_r	pro_sup_r	wrist_flex_r	wrist_dev_r	arm_flex_l	arm_add_l	arm_rot_l	elbow_flex_l	pro_sup_l	wrist_flex_l	wrist_dev_l
     25.56000000	     -7.10121423	     -4.91531718	     -1.90653519	      1.04092066	      0.93008811	      0.44397622	     31.30177898	     -4.75897993	     -4.91161954	     74.43249120	     74.43249120	      4.37985039	    -15.70907234	      0.48705784	     20.01114563	     -6.21125330	     -6.21285153	     22.34429976	     22.34429976	     11.41168786	     -9.13962778	     -0.30214371	    -10.88742430	      4.47972533	      2.01408793	     10.73988618	    -13.34727952	     -0.58710760	     71.85408400	     44.70754281	      0.00000000	      0.00000000	      8.89027565	    -13.60170246	      6.51449725	     39.50047750	     45.23780179	      0.00000000	      0.00000000
     25.57164286	     -6.94004645	     -4.97953036	     -1.79555035	      1.04045799	      0.93055317	      0.44340128	     32.59808369	     -4.74375393	     -4.76251881	     73.96974367	     73.96974367	      4.24255909	    -15.57242720	      0.50452179	     19.15040134	     -6.21675042	     -6.27209982	     22.13548587	     22.13548587	     11.94818412	     -8.79642689	     -0.44726856	    -11.03327340	      4.69807953	      2.02756725	      9.05200280	    -13.46022808	     -1.32243083	     67.85036296	     44.88906856	      0.00000000	      0.00000000	     11.19919349	    -13.95324775	      7.10989846	     40.10347682	     45.25901843	      0.00000000	      0.00000000
     25.58328571	     -6.76808581	     -5.03759422	     -1.71601025	      1.03992968	      0.93096817	      0.44288387	     33.81232935	     -4.71605063	     -4.60654240	     73.33517533	     73.33517533	      4.01411731	    -15.44323060	      0.63046949	     18.27676199	     -6.21237013	     -6.30306504	     21.90544976	     21.90544976	     12.40419655	     -8.54739006	     -0.54060921	    -11.36966239	      4.89720399	      2.37822280	      6.89439877	    -14.12807488	     -1.33897096	     65.22836567	     44.97601636	      0.00000000	      0.00000000	     13.44065620	    -14.10450352	      7.14346989	     41.33478673	     45.30405182	      0.00000000	      0.00000000
     25.59492857	     -6.61018199	     -5.12406334	     -1.61037669	      1.03943762	      0.93129961	      0.44248513	     34.89418516	     -4.65661948	     -4.51873088	     72.41962026	     72.41962026	      3.81473884	    -15.29578261	      0.89952123	     17.47533339	     -6.28448229	     -6.44653087	     21.77993246	     21.77993246	     13.00475939	     -8.02224385	     -0.53039219	    -11.53711086	      5.10124958	      2.23838215	      6.10325721	    -13.75489840	     -2.57205455	     59.47738863	     45.23439304	      0.00000000	      0.00000000	     15.58658039	    -14.69412340	      8.51620153	     42.03243990	     45.24933029	      0.00000000	      0.00000000
     25.60657143	     -6.48428696	     -5.19624318	     -1.53141093	      1.03898706	      0.93153939	      0.44215729	     35.85848005	     -4.59812422	     -4.45638372	     71.15108370	     71.15108370	      3.62589887	    -15.08224198	      1.18480975	     16.68091355	     -6.32139177	     -6.50333379	     21.59224605	     21.59224605	     13.54422459	     -7.70367455	     -0.44809258	    -11.72254373	      5.29840393	      2.36238157	      4.91599097	    -13.78465533	     -3.35227027	     54.94418372	     45.42742229	      0.00000000	      0.00000000	     17.66261514	    -15.11743123	      9.50864316	     43.17547572	     45.24124840	      0.00000000	      0.00000000
     25.61821429	     -6.31209971	     -5.27976179	     -1.48856510	      1.03860657	      0.93175712	      0.44194856	     36.61456492	     -4.49771254	     -4.43222493	     69.48698761	     69.48698761	      3.40377988	    -14.85272404	      1.42520998	     15.78831881	     -6.35662343	     -6.49471749	     21.32029567	     21.32029567	     14.00558097	     -7.55175590	     -0.48648236	    -12.03389214	      5.53391043	      2.81469791	      3.06271276	    -14.27107357	     -3.45784393	     52.23347071	     45.52048033	      0.00000000	      0.00000000	     19.74252260	    -15.14826223	      9.55533710	     44.51403558	     45.28745792	      0.00000000	      0.00000000
     25.62985714	     -6.25640793	     -5.31574312	     -1.43458028	      1.03822771	      0.93179573	      0.44188687	     37.29983684	     -4.44533032	     -4.48781030	     67.35190999	     67.35190999	      3.13016315	    -14.58824820	      1.36586166	     15.07082450	     -6.37704627	     -6.56445975	     21.12802896	     21.12802896	     14.52289163	     -7.24927005	     -0.41597321	    -12.06597657	      5.68025686	      2.57331025	      3.05688926	    -13.74059280	     -4.87241765	     45.53338612	     45.82419704	      0.00000000	      0.00000000	     21.44053877	    -15.82948295	     10.78582253	     45.73397937	     45.26954634	      0.00000000	      0.00000000
     25.64150000	     -6.19429743	     -5.32535684	     -1.44480607	      1.03796242	      0.93171645	      0.44196413	     37.80101943	     -4.37473553	     -4.57051742	     64.77846885	     64.77846885	      2.94604154	    -14.19562589	      1.39163211	     14.27449333	     -6.34885408	     -6.55076083	     20.82760280	     20.82760280	     14.95330801	     -7.16836519	     -0.45676125	    -12.20829210	      5.82629575	      3.02869579	      1.45968615	    -14.00432643	     -5.20549314	     42.57594660	     45.93797466	      0.00000000	      0.00000000	     23.22094474	    -15.84701778	     10.81743969	     47.40302612	     45.33123889	      0.00000000	      0.00000000
     25.65314286	     -6.11883617	     -5.34282189	     -1.49814266	      1.03783516	      0.93165295	      0.44225328	     38.05755801	     -4.25294076	     -4.73230029	     61.70319304	     61.70319304	      2.76318058	    -13.65649443	      1.27625339	     13.42791584	     -6.34419066	     -6.58992210	     20.48987071	     20.48987071	     15.33440246	     -7.12510602	     -0.51763422	    -12.35816326	      5.96858606	      3.49089016	      0.10793181	    -14.18698819	     -5.57239376	     39.17112676	     46.07547486	      0.00000000	      0.00000000	     24.88341428	    -15.88189334	     10.86953898	     49.17285941	     45.38629614	      0.00000000	      0.00000000
     25.66478571	     -6.11181980	     -5.41328391	     -1.54039095	      1.03788378	      0.93146217	      0.44267012	     38.12813728	     -4.08393221	     -5.09510544	     58.13178755	     58.13178755	      2.64403325	    -12.88925768	      1.21302579	     12.62746790	     -6.39298677	     -6.54841325	     20.11581282	     20.11581282	     15.71183709	     -7.09924559	     -0.61535747	    -12.37148012	      6.22142954	      3.69376815	     -1.20170447	    -14.32022411	     -5.83171659	     36.49228077	     46.18389216	      0.00000000	      0.00000000	     26.25140865	    -15.98502683	     10.82724012	     50.76391864	     45.43582760	      0.00000000	      0.00000000
     25.67642857	     -6.19777374	     -5.34640100	     -1.63233981	      1.03800740	      0.93107879	      0.44331383	     38.00094740	     -3.95665629	     -5.45687574	     53.93313023	     53.93313023	      1.60088273	    -12.52702283	     -1.74746970	     11.86314269	     -6.30051428	     -6.55358124	     19.62582615	     19.62582615	     15.87491986	     -7.21008349	     -1.00179813	    -12.24804882	      6.23067455	      3.02455419	      0.00127480	    -13.47880100	     -9.11667436	     28.78695504	     46.68480528	      0.00000000	      0.00000000	     26.36891588	    -17.08935711	     10.39535616	     54.61432310	     45.71793809	      0.00000000	      0.00000000
     25.68807143	     -6.20763352	     -5.29534195	     -1.77570516	      1.03842345	      0.93065014	      0.44415803	     37.66723467	     -3.76302078	     -5.92017697	     49.61984283	     49.61984283	      1.70081003	    -11.22425442	     -1.55615385	     10.98044484	     -6.24622342	     -6.63921889	     19.15406898	     19.15406898	     16.20656411	     -7.20206482	     -1.10052796	    -12.23797862	      6.28735438	      3.61894640	     -1.78642140	    -13.68863725	     -9.20133942	     27.13105175	     46.74394547	      0.00000000	      0.00000000	     27.76399453	    -16.95870390	     10.18715300	     56.35844824	     45.78762473	      0.00000000	      0.00000000
     25.69971429	     -6.30232636	     -5.28593280	     -1.91147503	      1.03904218	      0.93003437	      0.44517474	     37.16380470	     -3.45661905	     -6.52274858	     44.93919591	     44.93919591	      1.74159556	     -9.74473694	     -1.24882727	     10.16641665	     -6.24394645	     -6.67481343	     18.66113023	     18.66113023	     16.53819154	     -7.17628582	     -1.24316018	    -12.06232215	      6.40580079	      3.92063124	     -3.36195349	    -13.82987664	     -9.27403102	     25.70667820	     46.79735514	      0.00000000	      0.00000000	     28.82969621	    -16.97267818	      9.98685468	     58.01699641	     45.84539354	      0.00000000	      0.00000000
     25.71135714	     -6.30858620	     -5.11158381	     -2.10841070	      1.03999174	      0.92930572	      0.44639001	     36.35923078	     -3.23821912	     -7.16874598	     40.03218819	     40.03218819	      1.46690623	     -8.01819317	     -2.08784741	      9.11476355	     -6.05093007	     -6.82042100	     17.93314006	     17.93314006	     16.51597592	     -7.32731502	     -2.07871643	    -12.02965695	      6.25824220	      3.65640139	     -3.56312603	    -13.67425396	    -10.03160521	     21.96511280	     47.04000178	      0.00000000	      0.00000000	     28.52564350	    -18.03870346	      9.51197262	     63.05842394	     46.03362073	      0.00000000	      0.00000000
